<svg xmlns="http://www.w3.org/2000/svg" width="26.257" height="26.253" viewBox="0 0 26.257 26.253">
  <g id="join_scheme" data-name="join scheme" transform="translate(-0.352 0.279)">
    <path id="Path_3316" data-name="Path 3316" d="M26.251,15.717c0-3.485-1.436-8.042-5.431-9.678V4.293l1.188-.95a.452.452,0,0,0,.17-.353V.455A.453.453,0,0,0,21.725,0H20.367a.453.453,0,0,0-.32.133L19.462.72,18.877.135A.453.453,0,0,0,18.557,0h-1.81a.452.452,0,0,0-.32.133L15.841.72,15.256.135A.452.452,0,0,0,14.936,0H13.578a.453.453,0,0,0-.453.453V2.989a.453.453,0,0,0,.17.353l1.188.95V6.039c-4,1.636-5.431,6.195-5.431,9.678a7.4,7.4,0,0,0,.376,2.406c-.195-.011-.391-.017-.586-.017H7.694a.453.453,0,0,0-.453-.453H3.621a.453.453,0,0,0-.453.453H0v.905H3.168v4.526H0v.905H3.168a.453.453,0,0,0,.453.453H7.242a.453.453,0,0,0,.453-.453V24.27l3.379,1.4a7.83,7.83,0,0,0,5.76.064l6.992-2.666a1.673,1.673,0,0,0,.631-2.688A6.279,6.279,0,0,0,26.251,15.717ZM6.789,23.99H4.073V18.559H6.789ZM14.031,2.772V.907h.718l.773.773a.453.453,0,0,0,.64,0l.773-.773H18.37l.773.773a.453.453,0,0,0,.64,0l.773-.773h.718V2.772l-1.064.851H15.094Zm5.884,1.756V5.886H15.389V4.528Zm4.005,17.3a.748.748,0,0,1-.419.4l-6.992,2.666a6.925,6.925,0,0,1-5.093-.055L7.694,23.29V19.012H8.842a9.716,9.716,0,0,1,4.324,1.021,3.2,3.2,0,0,0,1.428.337H18.1a.679.679,0,0,1,.149,1.34c-.059.005-.117.018-.177.018h-5.4v.905H18.1l.027,0a2.789,2.789,0,0,0,1.045-.221L22.96,20.8a.718.718,0,0,1,.564,0,.747.747,0,0,1,.407.421A.777.777,0,0,1,23.92,21.825ZM23.65,19.9a1.611,1.611,0,0,0-1.044.072l-2.935,1.246a1.545,1.545,0,0,0,.017-.167A1.584,1.584,0,0,0,18.1,19.464H14.593a2.3,2.3,0,0,1-1.023-.242,10.616,10.616,0,0,0-3.119-.988,6.2,6.2,0,0,1-.494-2.517c0-3.259,1.331-7.536,5.069-8.926h5.25c3.738,1.39,5.069,5.668,5.069,8.926A5.366,5.366,0,0,1,23.65,19.9Z" transform="translate(0.351 -0.281)" fill="#fff"/>
    <path id="Path_3317" data-name="Path 3317" d="M5.456,20.273H4.551v.905h.905Z" transform="translate(0.779 1.625)" fill="#fff"/>
    <path id="Path_3318" data-name="Path 3318" d="M16.562,7.448a4.979,4.979,0,1,0,4.979,4.979A4.979,4.979,0,0,0,16.562,7.448Zm0,9.052a4.073,4.073,0,1,1,4.073-4.074A4.074,4.074,0,0,1,16.562,16.5Z" transform="translate(1.441 0.317)" fill="#fff"/>
    <path id="Path_3319" data-name="Path 3319" d="M0,1.782l.31-.7H1.477A.447.447,0,0,0,1.4.938.549.549,0,0,0,1.264.815.752.752,0,0,0,1.083.73.666.666,0,0,0,.872.7H0L.31,0H3.652l-.31.7H2.535a.553.553,0,0,1,.089.086.688.688,0,0,1,.073.1.991.991,0,0,1,.053.1.442.442,0,0,1,.027.1h.875l-.31.7H2.709a1.156,1.156,0,0,1-.207.336,1.7,1.7,0,0,1-.32.285,2.056,2.056,0,0,1-.4.212,1.911,1.911,0,0,1-.434.116L3.106,4.54H1.718L.152,2.821v-.64H.845a.6.6,0,0,0,.2-.033.733.733,0,0,0,.18-.089.663.663,0,0,0,.143-.127.456.456,0,0,0,.086-.151Z" transform="translate(16.417 10.766)" fill="#fff"/>
  </g>
</svg>
