<svg id="offers" xmlns="http://www.w3.org/2000/svg" width="25.712" height="24.53" viewBox="0 0 25.712 24.53">
  <g id="Path_3300" data-name="Path 3300" transform="translate(-170.972 -243.264)" fill="none">
    <path d="M182.982,255.937l-3.382,4.977.57,6.737h4.91V255.5h-1.8Z" stroke="none"/>
    <path d="M 183.8090972900391 256.5 L 180.6263580322266 261.1829223632812 L 181.0891571044922 266.651123046875 L 184.0804901123047 266.651123046875 L 184.0804901123047 256.5 L 183.8090972900391 256.5 M 183.2758026123047 255.5 L 185.0804901123047 255.5 L 185.0804901123047 267.651123046875 L 180.1702117919922 267.651123046875 L 179.6000213623047 260.9140014648438 L 182.982421875 255.9373168945312 L 183.2758026123047 255.5 Z" stroke="none" fill="#fff"/>
  </g>
  <g id="Path_3301" data-name="Path 3301" transform="translate(-361.317 -243.264)" fill="none">
    <path d="M381.1,255.5v12.151H386l1.024-12.151Z" stroke="none"/>
    <path d="M 382.1000366210938 256.5 L 382.1000366210938 266.651123046875 L 385.0855407714844 266.651123046875 L 385.9410705566406 256.5 L 382.1000366210938 256.5 M 381.1000366210938 255.5 L 387.0289001464844 255.5 L 386.0047912597656 267.651123046875 L 381.1000366210938 267.651123046875 L 381.1000366210938 255.5 Z" stroke="none" fill="#fff"/>
  </g>
  <g id="Path_3302" data-name="Path 3302" transform="translate(-23.739 -206.046)" fill="none" stroke-linecap="round">
    <path d="M35.4,217.849l-2.58-1.749-2.9,4.263A3.714,3.714,0,0,0,29,218.768a2.2,2.2,0,0,0-1.9-.714,1.5,1.5,0,0,0-1.1.753,1.912,1.912,0,0,0,.371,1.993,8.556,8.556,0,0,0,.587.736c-.293-.1-.592-.194-.9-.271a1.905,1.905,0,0,0-1.987.393,1.479,1.479,0,0,0-.293,1.3,2.208,2.208,0,0,0,1.367,1.5,3.739,3.739,0,0,0,1.445.288,2.805,2.805,0,0,0,.376-.022l-2.785,4.108,2.58,1.749,5.5-8.1,2.84-4.185Zm-8.708,1.318a.707.707,0,0,1,.526-.349.9.9,0,0,1,.172-.011c.891,0,1.628,1.052,1.81,1.843a2.906,2.906,0,0,1,.066.692l-.006.011h0l-.565.83a11.863,11.863,0,0,1-1.683-1.838C26.632,219.815,26.538,219.46,26.693,219.167Zm.277,4.766c-.853.127-2.209-.21-2.43-1.163a.7.7,0,0,1,.133-.62.713.713,0,0,1,.587-.232,2.72,2.72,0,0,1,.626.094,11.707,11.707,0,0,1,2.325.886l-.459.67h0l-.116.166A2.412,2.412,0,0,1,26.969,223.933Z" stroke="none"/>
    <path d="M 33.08660507202148 217.4884643554688 L 30.15036201477051 221.8114318847656 L 30.12601280212402 221.8602294921875 L 29.68490409851074 222.5088958740234 L 29.68797302246094 222.5104064941406 L 29.45459175109863 222.8506469726562 L 30.19305229187012 223.6888885498047 L 29.12835693359375 223.3273162841797 L 28.87537384033203 223.6993408203125 L 28.87356185913086 223.6976928710938 L 28.57647895812988 224.1307983398438 L 25.57370376586914 228.5603637695312 L 26.4983024597168 229.1873474121094 L 34.00986480712891 218.1145324707031 L 33.08660507202148 217.4884643554688 M 32.8208122253418 216.0999908447266 L 35.4005126953125 217.8493041992188 L 35.1015739440918 218.2866363525391 L 26.76462173461914 230.576171875 L 24.18493270874023 228.8268432617188 L 26.96944427490234 224.7192687988281 C 26.84766387939453 224.7358856201172 26.72033309936523 224.7414093017578 26.59301376342773 224.7414093017578 C 26.10032272338867 224.7414093017578 25.58549499511719 224.6417694091797 25.14816284179688 224.4535522460938 C 24.41743469238281 224.1380157470703 23.93028259277344 223.6065673828125 23.78081130981445 222.9533386230469 C 23.67009353637695 222.4883422851562 23.78081130981445 222.0067138671875 24.07421493530273 221.657958984375 C 24.69422149658203 220.92724609375 25.68514633178711 221.1707916259766 26.06157302856445 221.2649230957031 C 26.37157440185547 221.3424224853516 26.67051315307617 221.4365386962891 26.96391296386719 221.5361785888672 C 26.75908279418945 221.3036651611328 26.5598030090332 221.0600891113281 26.37711334228516 220.7999114990234 C 26.15014266967773 220.484375 25.55781173706055 219.6484527587891 26.0062141418457 218.8070068359375 C 26.22211456298828 218.4084320068359 26.63176345825195 218.1260986328125 27.10231399536133 218.0541381835938 C 27.7665958404541 217.9544677734375 28.44198417663574 218.2036285400391 29.0010929107666 218.7682647705078 C 29.42735290527344 219.1945190429688 29.77057266235352 219.7868499755859 29.92558288574219 220.3625946044922 L 32.8208122253418 216.0999908447266 Z M 28.69662284851074 222.1838684082031 L 29.26681327819824 221.3424224853516 C 29.27235221862793 221.1099090576172 29.25021362304688 220.8774108886719 29.20038223266602 220.6504364013672 C 29.01770401000977 219.8588104248047 28.28144264221191 218.8070068359375 27.39017295837402 218.8070068359375 C 27.33481216430664 218.8070068359375 27.27392387390137 218.8070068359375 27.21856307983398 218.8180694580078 C 26.98605346679688 218.8513031005859 26.79230499267578 218.9841613769531 26.69265365600586 219.1668395996094 C 26.53765487670898 219.4602355957031 26.63176345825195 219.8145294189453 27.01374435424805 220.3459625244141 C 27.52856254577637 221.0656127929688 28.13750267028809 221.6745758056641 28.69662284851074 222.1838684082031 Z M 26.60348892211914 223.9589538574219 C 26.73184585571289 223.9589538574219 26.85523986816406 223.9502410888672 26.96945190429688 223.9331817626953 C 27.19641304016113 223.8999633789062 27.4178524017334 223.8335418701172 27.63375282287598 223.73388671875 L 27.75000381469727 223.5678253173828 L 28.20947265625 222.8979797363281 C 27.55624389648438 222.5769195556641 26.74248123168945 222.2226104736328 25.88443374633789 222.0122680664062 C 25.24153137207031 221.8550720214844 24.88899230957031 221.8975982666016 24.67208480834961 222.1506500244141 C 24.53368377685547 222.3111724853516 24.48386383056641 222.543701171875 24.53922271728516 222.7706604003906 C 24.73098754882812 223.5952453613281 25.77375793457031 223.9589538574219 26.60348892211914 223.9589538574219 Z" stroke="none" fill="#fff"/>
  </g>
  <path id="Path_3303" data-name="Path 3303" d="M284.9,59.044a1.2,1.2,0,0,0,1.2-1.2V57.1a1.2,1.2,0,0,0-2.4,0v.742A1.2,1.2,0,0,0,284.9,59.044Zm-.426-1.943a.426.426,0,0,1,.853,0v.742a.426.426,0,0,1-.853,0Z" transform="translate(-269.309 -54.714)" fill="#fac900"/>
  <path id="Path_3304" data-name="Path 3304" d="M333.7,133.8a1.2,1.2,0,0,0-1.2,1.2v.742a1.2,1.2,0,0,0,2.4,0V135A1.2,1.2,0,0,0,333.7,133.8Zm.426,1.943a.426.426,0,0,1-.853,0V135a.426.426,0,0,1,.853,0Z" transform="translate(-315.407 -128.302)" fill="#e49e2b"/>
  <path id="Path_3305" data-name="Path 3305" d="M289.71,69.667l3.748-5.874a.388.388,0,1,0-.653-.421l-3.748,5.874a.391.391,0,0,0,.116.537.42.42,0,0,0,.21.061A.389.389,0,0,0,289.71,69.667Z" transform="translate(-274.311 -61.605)" fill="#fac900"/>
  <path id="Path_3306" data-name="Path 3306" d="M398.364,36.934a.39.39,0,0,0,.277-.116l1.683-1.683a.388.388,0,1,0-.548-.548l-1.688,1.683a.39.39,0,0,0,.277.664Z" transform="translate(-377.258 -34.475)" fill="#fff"/>
  <path id="Path_3307" data-name="Path 3307" d="M398.087,171.287a.391.391,0,0,0,0,.548l1.683,1.683a.387.387,0,0,0,.271.116.4.4,0,0,0,.277-.116.391.391,0,0,0,0-.548l-1.683-1.683A.391.391,0,0,0,398.087,171.287Z" transform="translate(-377.258 -163.608)" fill="#fff"/>
  <path id="Path_3308" data-name="Path 3308" d="M398.888,118a.388.388,0,1,0,0,.775h1.921a.388.388,0,1,0,0-.775Z" transform="translate(-377.754 -113.376)" fill="#fff"/>
  <path id="Path_3309" data-name="Path 3309" d="M219.07,36.818a.39.39,0,0,0,.277.116.369.369,0,0,0,.271-.116.391.391,0,0,0,0-.548l-1.683-1.683a.388.388,0,1,0-.548.548Z" transform="translate(-206.561 -34.475)" fill="#fff"/>
  <path id="Path_3310" data-name="Path 3310" d="M219.07,171.287l-1.683,1.683a.39.39,0,0,0,.271.664.4.4,0,0,0,.277-.116l1.683-1.683a.388.388,0,0,0-.548-.548Z" transform="translate(-206.561 -163.608)" fill="#fff"/>
  <path id="Path_3311" data-name="Path 3311" d="M212.787,118.775h1.921a.388.388,0,1,0,0-.775h-1.921a.388.388,0,0,0,0,.775Z" transform="translate(-201.956 -113.376)" fill="#fff"/>
  <g id="Rectangle_937" data-name="Rectangle 937" transform="translate(14.884 12.236)" fill="none" stroke="#fff" stroke-width="1">
    <rect width="4.124" height="12.146" stroke="none"/>
    <rect x="0.5" y="0.5" width="3.124" height="11.146" fill="none"/>
  </g>
  <g id="Path_3487" data-name="Path 3487" transform="matrix(0.819, 0.574, -0.574, 0.819, 5.867, 15.911)" fill="#a96c08">
    <path d="M 0.9037795066833496 1.53928542137146 L 0.8805947303771973 0.5252768993377686 L 0.9804372787475586 0.5257240533828735 L 0.9838196039199829 1.537455081939697 L 0.9037795066833496 1.53928542137146 Z" stroke="none"/>
    <path d="M 0.36897873878479 0.02298569679260254 L 1.478778839111328 0.02795577049255371 L 1.485458850860596 2.026115655899048 L 0.4153387546539307 2.050585746765137 L 0.36897873878479 0.02298569679260254 Z" stroke="none" fill="#a86c07"/>
  </g>
</svg>
