<svg id="order_details" data-name="order details" xmlns="http://www.w3.org/2000/svg" xmlns:xlink="http://www.w3.org/1999/xlink" width="25.276" height="21.47" viewBox="0 0 25.276 21.47">
  <defs>
    <linearGradient id="linear-gradient" x1="0.247" y1="0.166" x2="0.767" y2="0.841" gradientUnits="objectBoundingBox">
      <stop offset="0" stop-color="#fac900"/>
      <stop offset="1" stop-color="#e49e2b"/>
    </linearGradient>
  </defs>
  <path id="Path_3313" data-name="Path 3313" d="M.756,14.49a.765.765,0,0,1,0-1.53H1.879a3.574,3.574,0,0,1,1.841.484,3.629,3.629,0,0,1,1.453,2.6h8.4a6.618,6.618,0,0,0-.153,1.419v.093H5.6l1.725,6.491H19.551l0-.011q.225.016.455.016a6.624,6.624,0,0,0,1.118-.095l-.258,1.04a.747.747,0,0,1-.736.581H7.731a3.1,3.1,0,0,0,.911,1.8,5.07,5.07,0,0,0,2.519.29h8.778a.756.756,0,0,1,0,1.512H11.181c-1.608.019-2.6-.02-3.391-.543-.814-.543-1.24-1.473-1.666-3.158l-2.6-9.824c0-.019,0-.019-.019-.039a1.349,1.349,0,0,0-.581-.872A1.972,1.972,0,0,0,1.86,14.49H.756Zm11.3,4.784a.537.537,0,0,1,1.054,0V22.2a.537.537,0,0,1-1.054,0Zm-3.156,0a.537.537,0,0,1,1.054,0V22.2a.537.537,0,0,1-1.054,0Zm8.769,10.795a1.86,1.86,0,1,1-1.86,1.861A1.861,1.861,0,0,1,17.672,30.069Zm-8.158,0a1.86,1.86,0,1,1-1.86,1.861A1.861,1.861,0,0,1,9.514,30.069Z" transform="translate(0 -12.32)" fill="#f5f5f5"/>
  <path id="Path_3314" data-name="Path 3314" d="M303.887,0a5.267,5.267,0,1,1-3.724,1.543A5.252,5.252,0,0,1,303.887,0Z" transform="translate(-283.878 0)" fill="url(#linear-gradient)"/>
  <path id="Path_3315" data-name="Path 3315" d="M346.028,58.641l.982.928,2.134-2.165c.193-.195.313-.352.55-.108l.77.788c.253.25.24.4,0,.629l-3.015,2.963c-.5.493-.415.523-.925.017l-1.792-1.782a.221.221,0,0,1,.022-.346l.893-.927C345.783,58.5,345.89,58.51,346.028,58.641Z" transform="translate(-327.645 -54.349)" fill="#a36807" fill-rule="evenodd"/>
</svg>
