<svg id="theme" xmlns="http://www.w3.org/2000/svg" width="29.209" height="26.802" viewBox="0 0 29.209 26.802">
  <path id="Path_4079" data-name="Path 4079" d="M13.469,60.459a8.358,8.358,0,1,1-9.023-14,9.922,9.922,0,0,0,6.523,6.751q-.021.321-.021.649a9.882,9.882,0,0,0,2.522,6.6Z" transform="translate(0 -35.416)" fill="#6bbe66" fill-rule="evenodd"/>
  <path id="Path_4080" data-name="Path 4080" d="M69.276,52.312a8.358,8.358,0,0,1-16.716,0c0-.1,0-.195,0-.292a10.125,10.125,0,0,0,1.481.109,9.91,9.91,0,0,0,9.658-7.7,8.361,8.361,0,0,1,5.572,7.882Z" transform="translate(-40.066 -33.869)" fill="#ff4141" fill-rule="evenodd"/>
  <path id="Path_4081" data-name="Path 4081" d="M40.366,8.358A8.358,8.358,0,1,1,32.008,0a8.357,8.357,0,0,1,8.358,8.358Z" transform="translate(-18.028)" fill="#00a1f1" fill-rule="evenodd"/>
</svg>
