<svg xmlns="http://www.w3.org/2000/svg" xmlns:xlink="http://www.w3.org/1999/xlink" width="21.506" height="20.703" viewBox="0 0 21.506 20.703">
  <defs>
    <linearGradient id="linear-gradient" x1="0.037" y1="0.099" x2="0.903" y2="0.921" gradientUnits="objectBoundingBox">
      <stop offset="0" stop-color="#a46706"/>
      <stop offset="1" stop-color="#e99508"/>
    </linearGradient>
  </defs>
  <path id="duration" d="M16.718,11.18a4.786,4.786,0,1,1-4.785,4.786,4.786,4.786,0,0,1,4.785-4.786ZM12.529.75a.793.793,0,0,1,.865-.7.8.8,0,0,1,.865.709v3.29a.8.8,0,0,1-.865.709.8.8,0,0,1-.865-.709ZM4.783.75a.793.793,0,0,1,.865-.7.8.8,0,0,1,.866.709v3.29a.806.806,0,0,1-.866.718.8.8,0,0,1-.865-.709Zm6.4,18.878H1.792A1.8,1.8,0,0,1,0,17.836V3.636A1.8,1.8,0,0,1,1.792,1.844H3.444V4.049A1.967,1.967,0,0,0,4.19,5.58a2.319,2.319,0,0,0,2.917,0,1.967,1.967,0,0,0,.746-1.531V1.844H11.19V4.049a1.965,1.965,0,0,0,.744,1.531,2.321,2.321,0,0,0,2.919,0A1.971,1.971,0,0,0,15.6,4.049V1.844h1.729a1.8,1.8,0,0,1,1.792,1.792V9.777a6.71,6.71,0,0,0-.765-.245v-2.5H.765V17.454a1.414,1.414,0,0,0,1.409,1.4h8.575a7.019,7.019,0,0,0,.438.765ZM3.444,9.883l.606.569L5.29,9.19c.128-.131.21-.236.369-.072l.525.525c.175.175.159.266,0,.424l-1.841,1.8c-.336.331-.278.35-.621.012L2.574,10.737a.149.149,0,0,1,.014-.233l.6-.621C3.278,9.789,3.351,9.794,3.444,9.883ZM8.4,9.091h2.569a.327.327,0,0,1,.327.326v2.137a.331.331,0,0,1-.327.327H8.4a.329.329,0,0,1-.327-.327V9.416A.329.329,0,0,1,8.4,9.091Zm5.178,0h2.569a.331.331,0,0,1,.317.245,6.613,6.613,0,0,0-3.211.971V9.416a.327.327,0,0,1,.327-.326ZM8.4,13.632h2.1a6.617,6.617,0,0,0-.417,2.335,4.376,4.376,0,0,0,.016.455H8.4a.329.329,0,0,1-.327-.327V13.959a.329.329,0,0,1,.327-.327Zm-5.177,0H5.793a.327.327,0,0,1,.333.327v2.135a.331.331,0,0,1-.333.327H3.225a.327.327,0,0,1-.327-.327V13.959a.327.327,0,0,1,.327-.327Zm12.83-.075h.585a.2.2,0,0,1,.2.2v2.254H18.9a.2.2,0,0,1,.2.194v.586a.2.2,0,0,1-.2.194h-3.04V13.753a.2.2,0,0,1,.194-.2Zm.663-1.29a3.7,3.7,0,1,1-3.7,3.7,3.7,3.7,0,0,1,3.7-3.7Z" transform="translate(0 -0.05)" fill-rule="evenodd" fill="url(#linear-gradient)"/>
</svg>
