<svg xmlns="http://www.w3.org/2000/svg" width="17.699" height="20" viewBox="0 0 17.699 20">
  <g id="About_us" data-name="About us" transform="translate(-36 -331)">
    <path id="Path_2890" data-name="Path 2890" d="M55.967,11H39.932a.831.831,0,0,0-.832.832V30.16a.831.831,0,0,0,.832.832H51.32c.612.1,1.269-.755,1.269-.755l3.86-3.86a.953.953,0,0,0,.351-.694V11.832A.831.831,0,0,0,55.967,11ZM52.323,28.148V26.516h1.632Zm2.811-3.3H51.491a.831.831,0,0,0-.832.832v3.643H40.765V12.665h14.37Z" transform="translate(-3.1 320)" fill="#e69944"/>
    <path id="Path_2891" data-name="Path 2891" d="M159.832,191.765h6.247a.832.832,0,1,0,0-1.665h-6.247a.832.832,0,1,0,0,1.665Z" transform="translate(-116.107 148.207)" fill="#e69944"/>
    <path id="Path_2892" data-name="Path 2892" d="M159.832,276.465h6.247a.832.832,0,1,0,0-1.665h-6.247a.832.832,0,1,0,0,1.665Z" transform="translate(-116.107 66.963)" fill="#e69944"/>
  </g>
</svg>
