<svg xmlns="http://www.w3.org/2000/svg" width="20" height="20" viewBox="0 0 20 20">
  <g id="faq" transform="translate(-37 -425.5)">
    <g id="help-support-information-question-faq-svgrepo-com" transform="translate(38 426)">
      <path id="Path_2893" data-name="Path 2893" d="M12,17a1,1,0,1,0-1-1A1,1,0,0,0,12,17Z" transform="translate(-3 -3)" fill="#e69944"/>
      <path id="Path_2895" data-name="Path 2895" d="M12,14v-.5A3.092,3.092,0,0,1,14,11c2-1,1.5-4-1.5-4s-3,2.5-3,2.5V10" transform="translate(-3 -3)" fill="none" stroke="#e69944" stroke-width="2"/>
    </g>
    <path id="Path_2894" data-name="Path 2894" d="M12,21a9,9,0,1,0-9-9A9,9,0,0,0,12,21Z" transform="translate(35 423.5)" fill="none" stroke="#e69944" stroke-linejoin="round" stroke-width="2"/>
  </g>
</svg>
