<svg xmlns="http://www.w3.org/2000/svg" width="27.426" height="27.427" viewBox="0 0 27.426 27.427">
  <path id="Refer_your_Friend" data-name="Refer your Friend" d="M13.713,6.4A7.294,7.294,0,0,0,8.542,8.539l0,0a7.314,7.314,0,0,0,0,10.344l.03.027A7.315,7.315,0,1,0,13.713,6.4Zm8.294-1.561L20.118,6.723a.42.42,0,0,0,.595.595l1.875-1.875-.052,1.241a.089.089,0,0,0,.005.037.458.458,0,0,0,.166.23.449.449,0,0,0,.268.089.46.46,0,0,0,.463-.456c.035-.713.109-1.514.109-2.217a.459.459,0,0,0-.473-.482c-.6-.023-1.61.059-2.232.1a.46.46,0,0,0-.456.447v.012a.46.46,0,0,0,.449.459h.007a9.066,9.066,0,0,0,.961-.054l.2-.019ZM25.855,13.3h-2.67a.42.42,0,0,0,0,.841h2.651l-.914.84a.092.092,0,0,0-.022.029.464.464,0,0,0-.046.28.453.453,0,0,0,.127.253.46.46,0,0,0,.649,0c.529-.48,1.147-.994,1.646-1.491a.46.46,0,0,0,.006-.675c-.407-.44-1.18-1.1-1.651-1.5a.457.457,0,0,0-.321-.132.462.462,0,0,0-.318.126l-.009.008a.461.461,0,0,0-.007.642l.005.006a8.9,8.9,0,0,0,.718.641Zm-3.264,8.707L20.7,20.118a.42.42,0,1,0-.594.6l1.875,1.875-1.241-.052a.11.11,0,0,0-.037.005.459.459,0,0,0-.23.166.459.459,0,0,0,.042.593.459.459,0,0,0,.325.138c.714.035,1.514.109,2.218.109a.459.459,0,0,0,.481-.472c.024-.6-.059-1.61-.1-2.232a.457.457,0,0,0-.134-.32.464.464,0,0,0-.313-.136h-.012a.461.461,0,0,0-.46.449v.007a9.046,9.046,0,0,0,.054.961Zm-8.464,3.848v-2.67a.42.42,0,0,0-.841,0v2.651l-.841-.914a.1.1,0,0,0-.029-.022.462.462,0,0,0-.28-.046.46.46,0,0,0-.39.449.461.461,0,0,0,.132.327c.48.53.993,1.147,1.49,1.646a.459.459,0,0,0,.675.006c.44-.407,1.1-1.18,1.505-1.651a.461.461,0,0,0,.005-.639l-.008-.008a.46.46,0,0,0-.642-.007l-.005,0a8.9,8.9,0,0,0-.642.718l-.13.156ZM5.419,22.592,7.307,20.7a.42.42,0,1,0-.595-.595L4.838,21.984l.052-1.241a.087.087,0,0,0-.005-.036.462.462,0,0,0-.166-.23.46.46,0,0,0-.731.367c-.035.714-.109,1.514-.109,2.218a.459.459,0,0,0,.473.482c.6.023,1.61-.059,2.232-.1a.46.46,0,0,0,.456-.447v-.012a.46.46,0,0,0-.449-.46H6.583a9.053,9.053,0,0,0-.961.054l-.2.019ZM1.571,14.127h2.67a.42.42,0,1,0,0-.841H1.591l.914-.841a.09.09,0,0,0,.022-.029.462.462,0,0,0,.045-.28.458.458,0,0,0-.449-.389.461.461,0,0,0-.327.132c-.529.48-1.147.994-1.646,1.491a.46.46,0,0,0-.006.675c.407.439,1.18,1.1,1.651,1.5a.46.46,0,0,0,.639.006l.009-.008a.462.462,0,0,0,.007-.643l0-.005a8.987,8.987,0,0,0-.718-.641l-.156-.13ZM4.835,5.419,6.723,7.308a.42.42,0,0,0,.594-.6L5.442,4.838l1.241.052a.11.11,0,0,0,.037-.005.46.46,0,0,0-.137-.9c-.713-.035-1.514-.109-2.218-.109a.477.477,0,0,0-.348.135.483.483,0,0,0-.133.338c-.024.6.059,1.61.1,2.232a.46.46,0,0,0,.448.456h.011a.46.46,0,0,0,.46-.449V6.583a9.045,9.045,0,0,0-.054-.961l-.018-.2ZM13.3,1.572v2.67a.421.421,0,0,0,.842,0V1.591l.84.914a.1.1,0,0,0,.029.022.458.458,0,0,0,.28.045.449.449,0,0,0,.253-.126.458.458,0,0,0,0-.649c-.48-.53-.993-1.148-1.49-1.646a.459.459,0,0,0-.675-.006c-.44.407-1.1,1.18-1.505,1.651a.46.46,0,0,0-.005.638l.008.009a.461.461,0,0,0,.642.007l.005,0a8.9,8.9,0,0,0,.642-.718l.13-.156Zm5.3,16.252-.326-.251c-.818-.484-2.054-.357-2.859-.919a2.081,2.081,0,0,1-.149-.29c-.075-.172-.143-.359-.187-.486a5.936,5.936,0,0,0,.49-.7l.5-.788a1.454,1.454,0,0,0,.281-.72.567.567,0,0,0-.049-.258.473.473,0,0,0-.17-.2.548.548,0,0,0-.12-.061,12.8,12.8,0,0,0,.024-1.417,1.93,1.93,0,0,0-.062-.32,1.894,1.894,0,0,0-.837-1.067,2.619,2.619,0,0,0-.7-.312c-.157-.044.134-.547-.028-.565a4.028,4.028,0,0,0-2.609,1.233A1.919,1.919,0,0,0,11.3,11.92l.031,1.286a.359.359,0,0,0-.261.27,1.115,1.115,0,0,0,.137.677.075.075,0,0,0,.008.016l.565.93a4.845,4.845,0,0,0,.693.955c-.024.036-.05.071-.074.108a3.4,3.4,0,0,1-.369.474.08.08,0,0,0-.013.015c-.65.46-2.232.571-2.84.909l-.024.014-.321.254a6.383,6.383,0,1,1,9.761,0Z" fill="#e69944"/>
</svg>
