<svg xmlns="http://www.w3.org/2000/svg" width="14.176" height="18.9" viewBox="0 0 14.176 18.9">
  <g id="update_address" data-name="update address" transform="translate(-133.033 -13.927)">
    <path id="Path_4343" data-name="Path 4343" d="M139.588,10a7.087,7.087,0,0,0-7.088,7.088c0,3.913,7.088,11.813,7.088,11.813s7.088-7.9,7.088-11.813A7.087,7.087,0,0,0,139.588,10Zm.037,11.776a4.725,4.725,0,1,1,4.725-4.725A4.725,4.725,0,0,1,139.624,21.776ZM138.2,16.1c.087-1.23.933-1.786,2.9-1.994a3.255,3.255,0,0,0-2.224-.312,3.34,3.34,0,0,0-2.312,2l-.851-.122c.476.789.9,1.495,1.344,2.224.717-.538,1.377-1.032,2.147-1.61L138.2,16.1Zm1.767,1.215c.407.075.7.131,1.045.2-.409,1.608-1.524,2.029-2.982,1.979a3.588,3.588,0,0,0,2.154.343,3.37,3.37,0,0,0,2.426-2.046l.843.158-1.35-2.241c-.7.53-1.371,1.036-2.137,1.61Z" transform="translate(0.533 3.926)" fill="#e69944" opacity="0.88"/>
  </g>
</svg>
