<svg xmlns="http://www.w3.org/2000/svg" xmlns:xlink="http://www.w3.org/1999/xlink" width="42.369" height="40.443" viewBox="0 0 42.369 40.443">
  <defs>
    <linearGradient id="linear-gradient" x1="0.172" y1="0.043" x2="0.669" y2="0.861" gradientUnits="objectBoundingBox">
      <stop offset="0" stop-color="#fec401"/>
      <stop offset="1" stop-color="#e49e2b"/>
    </linearGradient>
  </defs>
  <g id="new_arrival" data-name="new arrival" transform="translate(0.165 0.324)">
    <g id="Layer_x0020_1" transform="translate(0 10.822) rotate(-20)">
      <g id="closed_svg" data-name="closed svg" transform="translate(-1.969 -1.765)">
        <path id="Path_4065" data-name="Path 4065" d="M35.579,11.616,4.77,0,0,12.65,30.809,24.267Z" transform="translate(0 7.625)" fill="#fff"/>
        <path id="Path_4066" data-name="Path 4066" d="M32.459,10.776,3.88,0,0,10.289,28.579,21.065Z" transform="translate(1.611 9.196)" stroke="#a97929" stroke-width="0.2" fill="url(#linear-gradient)"/>
        <path id="Path_4067" data-name="Path 4067" d="M32.459,10.776,3.88,0,0,10.29,28.579,21.065Z" transform="translate(1.566 9.228)" fill="none" stroke="#a97929" stroke-linecap="round" stroke-linejoin="round" stroke-miterlimit="10" stroke-width="0.4"/>
        <path id="Path_4068" data-name="Path 4068" d="M11.932,17.136,0,12.653,4.766,0,35.576,11.621l-4.766,12.64L19.579,19.919" transform="translate(0.001 7.623)" fill="none" stroke="#a97929" stroke-linecap="round" stroke-linejoin="round" stroke-miterlimit="10" stroke-width="0.5"/>
        <path id="Path_4069" data-name="Path 4069" d="M1.8.675,0,0" transform="translate(14.583 25.758)" fill="none" stroke="#a97929" stroke-linecap="round" stroke-linejoin="round" stroke-miterlimit="10" stroke-width="0.5"/>
        <path id="Path_4070" data-name="Path 4070" d="M1.8,1.263A.913.913,0,0,1,.6,1.8.913.913,0,0,1,.065.6a.913.913,0,0,1,1.2-.535A.917.917,0,0,1,1.8,1.263Z" transform="translate(7.95 7.047)" fill="#fff"/>
        <path id="Path_4071" data-name="Path 4071" d="M1.8,1.263A.913.913,0,0,1,.6,1.8.913.913,0,0,1,.065.6a.913.913,0,0,1,1.2-.535A.917.917,0,0,1,1.8,1.263Z" transform="translate(7.95 7.047)" fill="none" stroke="#a97929" stroke-linecap="round" stroke-linejoin="round" stroke-miterlimit="10" stroke-width="0.5"/>
        <path id="Path_4072" data-name="Path 4072" d="M0,5.911,15.19,0" transform="translate(9.824 1.468)" fill="none" stroke="#a97929" stroke-linecap="round" stroke-linejoin="round" stroke-miterlimit="10" stroke-width="0.5"/>
        <path id="Path_4073" data-name="Path 4073" d="M1.811,1.231a.93.93,0,1,0-1.18.58A.93.93,0,0,0,1.811,1.231Z" transform="translate(31.891 16.088)" fill="#fff"/>
        <path id="Path_4074" data-name="Path 4074" d="M1.811,1.231a.93.93,0,1,0-1.18.58A.93.93,0,0,0,1.811,1.231Z" transform="translate(31.891 16.088)" fill="none" stroke="#a97929" stroke-linecap="round" stroke-linejoin="round" stroke-miterlimit="10" stroke-width="0.5"/>
        <path id="Path_4075" data-name="Path 4075" d="M7.472,14.628,0,0" transform="translate(25.014 1.468)" fill="none" stroke="#a97929" stroke-linecap="round" stroke-linejoin="round" stroke-miterlimit="10" stroke-width="0.5"/>
        <path id="Path_4076" data-name="Path 4076" d="M2.832,1.978A1.464,1.464,0,1,1,.092.946,1.472,1.472,0,0,1,1.978.092,1.472,1.472,0,0,1,2.832,1.978Z" transform="translate(23.559 0)" fill="#fff"/>
        <path id="Path_4077" data-name="Path 4077" d="M2.832,1.978A1.464,1.464,0,1,1,.092.946,1.472,1.472,0,0,1,1.978.092,1.472,1.472,0,0,1,2.832,1.978Z" transform="translate(23.559 0)" fill="none" stroke="#a97929" stroke-linecap="round" stroke-linejoin="round" stroke-miterlimit="10" stroke-width="0.5"/>
        <path id="Path_4078" data-name="Path 4078" d="M2.7,4.172l-.632-.238-.616-2.7L.632,3.394,0,3.156,1.19,0l.632.238.614,2.707L3.253.778l.632.238ZM6.182,4a1.592,1.592,0,0,1-.11.237L4.244,3.544a.665.665,0,0,0,.03.5.625.625,0,0,0,.353.308.551.551,0,0,0,.615-.114l.682.257a1.231,1.231,0,0,1-.64.439,1.305,1.305,0,0,1-.841-.054,1.424,1.424,0,0,1-.591-.4,1.243,1.243,0,0,1-.275-.625,1.5,1.5,0,0,1,.1-.737,1.513,1.513,0,0,1,.415-.622A1.179,1.179,0,0,1,4.7,2.206a1.417,1.417,0,0,1,.714.089,1.391,1.391,0,0,1,.579.394,1.131,1.131,0,0,1,.273.6A1.379,1.379,0,0,1,6.182,4ZM5.6,3.569a.528.528,0,0,0-.03-.455A.66.66,0,0,0,5.2,2.807.617.617,0,0,0,4.751,2.8a.664.664,0,0,0-.342.32Zm5.012.729L8.933,6.524l-.682-.257.2-1.919L7.339,5.923l-.686-.259L6.86,2.886l.641.242L7.225,5.2l1.2-1.725.668.252L8.843,5.8,10,4.07Zm2.724,3.2-1.255-.473-.434.522-.664-.25L13.3,4.567l.736.277-.057,3.583-.668-.252Zm.019-.57.041-1.49-.953,1.146Zm2.528-.2a.922.922,0,0,1,.928-.135l-.25.664L16.389,7.2a.561.561,0,0,0-.837.4l-.47,1.246L14.45,8.6l.943-2.5.632.238Zm1.87.705a.922.922,0,0,1,.928-.135l-.25.664L18.259,7.9a.561.561,0,0,0-.837.4l-.47,1.246-.632-.238.943-2.5.632.238Zm1.818-.1a.425.425,0,0,1-.241-.209.387.387,0,0,1-.008-.307.371.371,0,0,1,.207-.221.415.415,0,0,1,.321,0,.4.4,0,0,1,.235.212.365.365,0,0,1,.014.3.379.379,0,0,1-.213.224A.408.408,0,0,1,19.567,7.336Zm.2.415-.943,2.5-.632-.238.943-2.5Zm.989,2.565,1.356-1.681.673.254-1.869,2.152-.768-.289L20.169,7.9l.677.255Zm1.8-.1a1.566,1.566,0,0,1,.4-.617,1.208,1.208,0,0,1,.581-.3,1.182,1.182,0,0,1,.642.062,1.075,1.075,0,0,1,.445.3,1.056,1.056,0,0,1,.231.412l.135-.357.637.24-.943,2.5-.637-.24.138-.366a1.022,1.022,0,0,1-.449.166,1.1,1.1,0,0,1-.535-.073,1.148,1.148,0,0,1-.517-.381,1.243,1.243,0,0,1-.239-.611A1.608,1.608,0,0,1,22.553,10.221Zm1.965.751a.853.853,0,0,0,.058-.427.66.66,0,0,0-.148-.345.7.7,0,0,0-.653-.251.7.7,0,0,0-.339.161.841.841,0,0,0-.237.354.9.9,0,0,0-.06.431.74.74,0,0,0,.147.349.674.674,0,0,0,.291.213.71.71,0,0,0,.362.039.7.7,0,0,0,.339-.161A.881.881,0,0,0,24.518,10.972ZM27.237,9.61l-1.26,3.341-.632-.238,1.26-3.341Z" transform="translate(4.266 13.266)" fill="#fff"/>
      </g>
    </g>
  </g>
</svg>
