<svg id="offers" xmlns="http://www.w3.org/2000/svg" width="25.404" height="24.236" viewBox="0 0 25.404 24.236">
  <g id="Path_3879" data-name="Path 3879" transform="translate(-171.075 -243.411)" fill="none">
    <path d="M182.942,255.932l-3.342,4.917.563,6.656h4.851V255.5h-1.783Z" stroke="none"/>
    <path d="M 183.7650604248047 256.5 L 180.6263580322266 261.1180725097656 L 181.0823364257812 266.5056457519531 L 184.0148773193359 266.5056457519531 L 184.0148773193359 256.5 L 183.7650604248047 256.5 M 183.2317962646484 255.5 L 185.0148773193359 255.5 L 185.0148773193359 267.5056457519531 L 180.1633911132812 267.5056457519531 L 179.6000213623047 260.8491821289062 L 182.9419250488281 255.9320983886719 L 183.2317962646484 255.5 Z" stroke="none" fill="#c68d2e"/>
  </g>
  <g id="Path_3880" data-name="Path 3880" transform="translate(-361.554 -243.411)" fill="none">
    <path d="M381.1,255.5v12.006h4.846l1.012-12.006Z" stroke="none"/>
    <path d="M 382.1000366210938 256.5 L 382.1000366210938 266.5056457519531 L 385.0267639160156 266.5056457519531 L 385.8700256347656 256.5 L 382.1000366210938 256.5 M 381.1000366210938 255.5 L 386.9578552246094 255.5 L 385.946044921875 267.5056457519531 L 381.1000366210938 267.5056457519531 L 381.1000366210938 255.5 Z" stroke="none" fill="#c68d2e"/>
  </g>
  <g id="Path_3881" data-name="Path 3881" transform="translate(-23.739 -206.166)" fill="none" stroke-linecap="round">
    <path d="M35.261,217.828,32.712,216.1l-2.861,4.212a3.67,3.67,0,0,0-.913-1.575,2.175,2.175,0,0,0-1.876-.706,1.485,1.485,0,0,0-1.083.744,1.889,1.889,0,0,0,.366,1.969,8.453,8.453,0,0,0,.58.727c-.29-.1-.585-.191-.892-.268a1.882,1.882,0,0,0-1.964.388,1.462,1.462,0,0,0-.29,1.28,2.182,2.182,0,0,0,1.351,1.482,3.694,3.694,0,0,0,1.428.284,2.777,2.777,0,0,0,.372-.022l-2.751,4.058,2.549,1.728L32.16,222.4l2.806-4.135Zm-8.6,1.3a.7.7,0,0,1,.52-.345.882.882,0,0,1,.17-.011c.881,0,1.608,1.039,1.789,1.821a2.871,2.871,0,0,1,.066.684l-.005.011h0l-.558.82a11.72,11.72,0,0,1-1.663-1.816C26.6,219.77,26.5,219.42,26.657,219.13Zm.273,4.709c-.842.126-2.182-.208-2.4-1.149a.688.688,0,0,1,.131-.613.7.7,0,0,1,.58-.23,2.689,2.689,0,0,1,.618.093,11.57,11.57,0,0,1,2.3.875l-.454.662h0l-.115.164A2.382,2.382,0,0,1,26.931,223.839Z" stroke="none"/>
    <path d="M 32.97785186767578 217.4884643554688 L 30.08393096923828 221.7490997314453 L 30.05978393554688 221.7974395751953 L 29.63136672973633 222.4274749755859 L 29.63446426391602 222.4290008544922 L 29.40126419067383 222.7689514160156 L 30.13386535644531 223.6005859375 L 33.87024688720703 218.0935974121094 L 32.97785186767578 217.4884643554688 M 29.06860160827637 223.2550659179688 L 28.81604385375977 223.6264801025391 L 28.81418991088867 223.6247863769531 L 28.53224182128906 224.0358123779297 L 25.56835556030273 228.407958984375 L 26.46206283569336 229.0139923095703 L 30.12490463256836 223.6138000488281 L 29.06860160827637 223.2550659179688 M 32.71206665039062 216.0999908447266 L 35.2608642578125 217.8283538818359 L 34.96550750732422 218.2604522705078 L 26.72838592529297 230.4028167724609 L 24.17958450317383 228.6744537353516 L 26.93076324462891 224.6160736083984 C 26.8104362487793 224.6324615478516 26.68463516235352 224.6379241943359 26.55883407592773 224.6379241943359 C 26.07204437255859 224.6379241943359 25.56337356567383 224.5394744873047 25.13128280639648 224.3535003662109 C 24.40930557250977 224.0417633056641 23.92798614501953 223.5166778564453 23.78030395507812 222.8712615966797 C 23.67092514038086 222.4118499755859 23.78030395507812 221.9359893798828 24.07019424438477 221.5913848876953 C 24.68278121948242 220.8694305419922 25.66183090209961 221.1100769042969 26.03375625610352 221.2030792236328 C 26.34005355834961 221.2796478271484 26.63540649414062 221.3726348876953 26.92529296875 221.4710845947266 C 26.72291564941406 221.2413482666016 26.52602386474609 221.0006866455078 26.34552383422852 220.7436065673828 C 26.12127304077148 220.4318695068359 25.53602600097656 219.6059417724609 25.97906494140625 218.7745819091797 C 26.19237518310547 218.3807830810547 26.59712600708008 218.1018218994141 27.06203460693359 218.0307464599609 C 27.71837615966797 217.9322509765625 28.38566398620605 218.1784057617188 28.93808555603027 218.7363128662109 C 29.35923385620117 219.1574554443359 29.69834518432617 219.7426910400391 29.85149383544922 220.3115386962891 L 32.71206665039062 216.0999908447266 Z M 28.63726425170898 222.1110076904297 L 29.20061492919922 221.2796478271484 C 29.20608520507812 221.0499114990234 29.1842155456543 220.8202056884766 29.13498497009277 220.5959320068359 C 28.95449447631836 219.8137969970703 28.22703552246094 218.7745819091797 27.34644508361816 218.7745819091797 C 27.29174423217773 218.7745819091797 27.23159408569336 218.7745819091797 27.17689514160156 218.7855377197266 C 26.94717407226562 218.8183441162109 26.75573348999023 218.9496307373047 26.65728378295898 219.1301116943359 C 26.50413513183594 219.4199981689453 26.59712600708008 219.7700653076172 26.97452545166016 220.2951202392578 C 27.48318481445312 221.0061492919922 28.08483505249023 221.6078338623047 28.63726425170898 222.1110076904297 Z M 26.56914901733398 223.8648529052734 C 26.69596862792969 223.8648529052734 26.81791687011719 223.8562316894531 26.93076324462891 223.8393707275391 C 27.15501403808594 223.8065643310547 27.37379455566406 223.7409515380859 27.58710479736328 223.6424713134766 L 27.70196533203125 223.4783782958984 L 28.15593528747559 222.8165740966797 C 27.51053428649902 222.4993743896484 26.70651626586914 222.1493072509766 25.85873413085938 221.9414520263672 C 25.22357940673828 221.7862243652344 24.87522506713867 221.828125 24.66090393066406 222.0782012939453 C 24.52416610717773 222.2368011474609 24.47494506835938 222.4665374755859 24.52963638305664 222.6907806396484 C 24.7191047668457 223.5055084228516 25.74935150146484 223.8648529052734 26.56914901733398 223.8648529052734 Z" stroke="none" fill="#c68d2e"/>
  </g>
  <path id="Path_3882" data-name="Path 3882" d="M284.887,59.007a1.189,1.189,0,0,0,1.187-1.187v-.733a1.187,1.187,0,0,0-2.374,0v.733A1.186,1.186,0,0,0,284.887,59.007Zm-.421-1.92a.421.421,0,0,1,.842,0v.733a.421.421,0,0,1-.842,0Z" transform="translate(-269.481 -54.728)" fill="#fac900"/>
  <path id="Path_3883" data-name="Path 3883" d="M333.687,133.8a1.189,1.189,0,0,0-1.187,1.187v.733a1.187,1.187,0,0,0,2.374,0v-.733A1.189,1.189,0,0,0,333.687,133.8Zm.421,1.92a.421.421,0,1,1-.842,0v-.733a.421.421,0,0,1,.842,0Z" transform="translate(-315.612 -128.367)" fill="#fac900"/>
  <path id="Path_3884" data-name="Path 3884" d="M289.7,69.589l3.7-5.8a.384.384,0,1,0-.645-.416l-3.7,5.8a.386.386,0,0,0,.115.531.415.415,0,0,0,.208.06A.384.384,0,0,0,289.7,69.589Z" transform="translate(-274.487 -61.624)" fill="#fac900"/>
  <path id="Path_3885" data-name="Path 3885" d="M398.359,36.9a.385.385,0,0,0,.273-.115l1.663-1.663a.383.383,0,0,0-.542-.541l-1.668,1.663a.386.386,0,0,0,.273.656Z" transform="translate(-377.506 -34.475)" fill="#c68d2e"/>
  <path id="Path_3886" data-name="Path 3886" d="M398.086,171.286a.386.386,0,0,0,0,.541l1.663,1.663a.383.383,0,0,0,.268.115.4.4,0,0,0,.273-.115.386.386,0,0,0,0-.541l-1.663-1.663A.386.386,0,0,0,398.086,171.286Z" transform="translate(-377.506 -163.698)" fill="#c68d2e"/>
  <path id="Path_3887" data-name="Path 3887" d="M398.883,118a.383.383,0,1,0,0,.766h1.9a.383.383,0,1,0,0-.766Z" transform="translate(-378.002 -113.432)" fill="#c68d2e"/>
  <path id="Path_3888" data-name="Path 3888" d="M219.049,36.79a.385.385,0,0,0,.273.115.364.364,0,0,0,.268-.115.386.386,0,0,0,0-.541l-1.663-1.663a.383.383,0,0,0-.542.541Z" transform="translate(-206.689 -34.475)" fill="#c68d2e"/>
  <path id="Path_3889" data-name="Path 3889" d="M219.048,171.286l-1.663,1.663a.386.386,0,0,0,.268.656.4.4,0,0,0,.274-.115l1.663-1.663a.383.383,0,1,0-.541-.541Z" transform="translate(-206.689 -163.698)" fill="#c68d2e"/>
  <path id="Path_3890" data-name="Path 3890" d="M212.783,118.766h1.9a.383.383,0,1,0,0-.766h-1.9a.383.383,0,0,0,0,.766Z" transform="translate(-202.081 -113.432)" fill="#c68d2e"/>
  <g id="Rectangle_1073" data-name="Rectangle 1073" transform="translate(14.705 12.089)" fill="none" stroke="#c68d2e" stroke-width="1">
    <rect width="4.075" height="12" stroke="none"/>
    <rect x="0.5" y="0.5" width="3.075" height="11" fill="none"/>
  </g>
</svg>
