<svg xmlns="http://www.w3.org/2000/svg" version="1.1" xmlns:xlink="http://www.w3.org/1999/xlink" xmlns:svgjs="http://svgjs.com/svgjs" width="512" height="512" x="0" y="0" viewBox="0 0 512 512" style="enable-background:new 0 0 512 512" xml:space="preserve" class=""><g><path d="M158.598 316.876H61.197c-6.706 0-12.175-5.469-12.175-12.175V61.197c0-6.706 5.469-12.175 12.175-12.175H280.35c6.706 0 12.175 5.469 12.175 12.175v146.102c0 6.73 5.445 12.175 12.175 12.175s12.175-5.445 12.175-12.175V61.197c0-20.141-16.384-36.526-36.526-36.526H61.197c-20.141 0-36.526 16.384-36.526 36.526v243.504c0 20.141 16.384 36.526 36.526 36.526h97.401c6.73 0 12.175-5.445 12.175-12.175.001-6.731-5.445-12.176-12.175-12.176z" fill="#c57e07" data-original="#c57e07" class=""></path><path d="M109.898 97.723c-6.73 0-12.175 5.445-12.175 12.175s5.445 12.175 12.175 12.175H231.65c6.73 0 12.175-5.445 12.175-12.175s-5.445-12.175-12.175-12.175zM243.825 182.949c0-6.73-5.445-12.175-12.175-12.175H109.898c-6.73 0-12.175 5.445-12.175 12.175s5.445 12.175 12.175 12.175H231.65c6.729 0 12.175-5.445 12.175-12.175zM158.598 243.825h-48.701c-6.73 0-12.175 5.445-12.175 12.175s5.445 12.175 12.175 12.175h48.701c6.73 0 12.175-5.445 12.175-12.175.001-6.73-5.445-12.175-12.175-12.175zM231.65 487.329h219.153c20.141 0 36.526-16.384 36.526-36.526V280.35c0-20.141-16.384-36.526-36.526-36.526H231.65c-20.141 0-36.526 16.384-36.526 36.526v170.453c0 20.141 16.384 36.526 36.526 36.526zm219.153-24.351H231.65c-6.706 0-12.175-5.469-12.175-12.175V341.226h243.504v109.577c-.001 6.706-5.47 12.175-12.176 12.175zM231.65 268.175h219.153c6.706 0 12.175 5.469 12.175 12.175v36.526H219.474V280.35c0-6.705 5.47-12.175 12.176-12.175zM100.968 508.433c2.378 2.378 5.493 3.567 8.608 3.567s6.23-1.189 8.608-3.567l49.022-49.022c4.756-4.756 4.756-12.46 0-17.216l-49.022-49.022c-4.756-4.756-12.46-4.756-17.216 0s-4.756 12.46 0 17.216l28.238 28.238H85.547c-20.141 0-36.526-16.384-36.526-36.526v-24.35c0-6.73-5.445-12.175-12.175-12.175s-12.175 5.445-12.175 12.175v24.35c0 33.565 27.311 60.876 60.876 60.876h43.659l-28.238 28.238c-4.756 4.757-4.756 12.462 0 17.218zM487.329 109.898c0-33.565-27.311-60.876-60.876-60.876h-43.659l28.238-28.238c4.756-4.756 4.756-12.46 0-17.216s-12.46-4.756-17.216 0L344.794 52.59c-4.756 4.756-4.756 12.46 0 17.216l49.022 49.022c2.378 2.378 5.493 3.567 8.608 3.567s6.23-1.189 8.608-3.567c4.756-4.756 4.756-12.46 0-17.216l-28.238-28.238h43.659c20.141 0 36.526 16.384 36.526 36.526v97.401c0 6.73 5.445 12.175 12.175 12.175s12.175-5.445 12.175-12.175z" fill="#c57e07" data-original="#c57e07" class=""></path></g></svg>