<svg xmlns="http://www.w3.org/2000/svg" width="20" height="20" viewBox="0 0 20 20">
  <path id="moths" d="M5.673,0a.7.7,0,0,1,.7.7V2.009H13.89V.708a.7.7,0,0,1,1.4,0v1.3H18a2,2,0,0,1,2,2V18a2,2,0,0,1-2,2H2a2,2,0,0,1-2-2V4.008a2,2,0,0,1,2-2H4.973V.7A.7.7,0,0,1,5.673,0ZM1.4,7.742V18a.6.6,0,0,0,.6.6H18a.6.6,0,0,0,.6-.6V7.756Zm5.267,6.877v1.666H5V14.619Zm4.167,0v1.666H9.167V14.619Zm4.167,0v1.666H13.333V14.619ZM6.667,10.642v1.666H5V10.642Zm4.167,0v1.666H9.167V10.642Zm4.167,0v1.666H13.333V10.642ZM4.973,3.408H2a.6.6,0,0,0-.6.6V6.343l17.2.014V4.008a.6.6,0,0,0-.6-.6H15.29v.929a.7.7,0,0,1-1.4,0V3.408H6.373v.92a.7.7,0,0,1-1.4,0Z" fill="#eeb703"/>
</svg>
