<svg xmlns="http://www.w3.org/2000/svg" width="23.402" height="21.063" viewBox="0 0 23.402 21.063">
  <path id="totalweight-gram" d="M23,11.846a2.346,2.346,0,0,0-2.282-1.825H17.75a4.552,4.552,0,0,0,.632-2.34,4.681,4.681,0,1,0-9.361,0,4.552,4.552,0,0,0,.632,2.34H6.681A2.346,2.346,0,0,0,4.4,11.846C2.047,21.219,2,21.465,2,21.722a2.347,2.347,0,0,0,2.34,2.34H23.062a2.347,2.347,0,0,0,2.34-2.34C25.4,21.465,25.356,21.219,23,11.846ZM13.7,5.34a2.34,2.34,0,1,1-2.34,2.34A2.347,2.347,0,0,1,13.7,5.34Zm3.51,9.361H12.531v4.681h2.34v-3.51h2.34v5.851H12.531a2.332,2.332,0,0,1-2.34-2.34V14.7a2.332,2.332,0,0,1,2.34-2.34h4.681Z" transform="translate(-2 -3)" fill="#a97929"/>
</svg>
