<svg xmlns="http://www.w3.org/2000/svg" width="25.453" height="27.349" viewBox="0 0 25.453 27.349">
  <path id="total_amount" data-name="total amount" d="M-11927.914-10384.652c-.493,0-.965-.011-1.364-.031l-.16-.008-.124-.006c-1.325-.062-3.141-.146-3.641-1.417-1.022-2.6,1.4-5.582,2.171-6.435a7.664,7.664,0,0,1,.591-.591l.151-.133.019-.018.006,0a5.088,5.088,0,0,1,1.6-1.09l-.656,1.22.953-1.262h.5l.66,1.34-.288-1.313c1.216.229,3.173,2.675,3.838,3.867a11,11,0,0,1,.843,1.933,3.4,3.4,0,0,1-.205,2.667,2.4,2.4,0,0,1-1.651,1.06A18.619,18.619,0,0,1-11927.914-10384.652Zm-2.075-4.37v.771l1.887,2.068h1.67l-2.114-2.174a2.269,2.269,0,0,0,.522-.141,2.466,2.466,0,0,0,.479-.255,2.1,2.1,0,0,0,.387-.345,1.471,1.471,0,0,0,.249-.405h.762l.371-.839h-1.052a.536.536,0,0,0-.033-.117l-.006-.014a1.18,1.18,0,0,0-.058-.109,1.017,1.017,0,0,0-.071-.1l-.016-.02a.716.716,0,0,0-.107-.1h.972l.371-.84h-4.023l-.372.837h1.05a.784.784,0,0,1,.255.042.853.853,0,0,1,.216.1.669.669,0,0,1,.165.146.565.565,0,0,1,.093.178h-1.406l-.372.839h1.745a.592.592,0,0,1-.1.184.871.871,0,0,1-.174.152.871.871,0,0,1-.216.105.728.728,0,0,1-.237.039Zm-4.387,3.76h-12.271a1.453,1.453,0,0,1-1.025-.426c0-.006-.009-.011-.013-.016l-.007-.007-.007-.008a1.438,1.438,0,0,1-.4-1v-23.83a1.435,1.435,0,0,1,.429-1.025,1.438,1.438,0,0,1,1.025-.429h17.623a1.435,1.435,0,0,1,1.025.429l.027.027a1.449,1.449,0,0,1,.4,1v10.459c-.132-.009-.263-.009-.39-.009-.17,0-.327.006-.479.019v-10.469a.573.573,0,0,0-.153-.393l-.018-.018a.577.577,0,0,0-.411-.174h-17.623a.571.571,0,0,0-.41.171.576.576,0,0,0-.174.413v23.83a.573.573,0,0,0,.155.4l.019.019a.575.575,0,0,0,.41.171h11.94a4.447,4.447,0,0,0,.174.53,2.763,2.763,0,0,0,.155.338Zm-2.228-2.731h-2.462a.386.386,0,0,1-.387-.384v-2.078a.391.391,0,0,1,.387-.387h2.462a.388.388,0,0,1,.387.387v2.078A.386.386,0,0,1-11936.6-10387.994Zm-5.455,0h-2.465a.384.384,0,0,1-.384-.384v-2.078a.386.386,0,0,1,.384-.387h2.465a.386.386,0,0,1,.384.387v2.078A.384.384,0,0,1-11942.059-10387.994Zm5.455-4.938h-2.462a.391.391,0,0,1-.387-.387v-2.078a.385.385,0,0,1,.387-.384h2.462a.386.386,0,0,1,.387.384v2.078A.388.388,0,0,1-11936.6-10392.933Zm-5.455,0h-2.465a.386.386,0,0,1-.384-.387v-2.078a.384.384,0,0,1,.384-.384h2.465a.384.384,0,0,1,.384.384v2.078A.386.386,0,0,1-11942.059-10392.933Zm9.481,0h-1.031a.388.388,0,0,1-.387-.387v-2.075a.39.39,0,0,1,.387-.384h1.641a1.931,1.931,0,0,0,.2.281l0,0,.782.941-.246.22-.159.141-.009.009c-.132.117-.248.228-.354.336s-.234.233-.348.359c-.15.169-.307.353-.477.562Zm3.38-1.7h0l-1.469-1.764a.485.485,0,0,1-.126-.317c0-.416.608-.784.969-.936l.729,1.382c-.237-.694-.425-1.33-.575-1.943a2.517,2.517,0,0,1,1.741-.475,3.4,3.4,0,0,1,1.929.463l-.63,1.5c.154-.2.266-.356.357-.484l.013-.017c.1-.139.181-.249.284-.377a1.655,1.655,0,0,1,.242.186.988.988,0,0,1,.372.594.614.614,0,0,1-.174.5l-1.448,1.688a3.039,3.039,0,0,1-.546-.138l.126-.282.033-.074.107-.243-.527.57a2.415,2.415,0,0,0-.5-.056,1.916,1.916,0,0,0-.9.227Zm-2.63-3.236h-1.778a.384.384,0,0,1-.384-.384v-2.077a.384.384,0,0,1,.109-.274.379.379,0,0,1,.271-.113h2.462a.386.386,0,0,1,.384.388v1.205a1.369,1.369,0,0,0-.281.537,3.114,3.114,0,0,0-.483.38,2.411,2.411,0,0,0-.3.339Zm-4.776,0h-2.462a.386.386,0,0,1-.387-.384v-2.077a.387.387,0,0,1,.387-.388h2.462a.388.388,0,0,1,.387.388v2.077A.386.386,0,0,1-11936.6-10397.875Zm-5.455,0h-2.465a.384.384,0,0,1-.384-.384v-2.077a.386.386,0,0,1,.384-.388h2.465a.386.386,0,0,1,.384.388v2.077A.384.384,0,0,1-11942.059-10397.875Zm11.23-5.364h-14.019a.779.779,0,0,1-.546-.225l-.016-.018-.015-.019a.77.77,0,0,1-.194-.51v-4.384a.767.767,0,0,1,.228-.54.777.777,0,0,1,.543-.228h14.021a.765.765,0,0,1,.542.225.134.134,0,0,1,.033.033.763.763,0,0,1,.192.51v4.384a.771.771,0,0,1-.226.543A.77.77,0,0,1-11930.828-10403.239Zm-13.917-5.053v4.181h13.823v-4.181Zm12.6,3.445h-.5v-2.71h.5v2.709Z" transform="translate(11948.101 10412.001)" fill="#a97929"/>
</svg>
