<svg id="eye-svgrepo-com_2_" data-name="eye-svgrepo-com (2)" xmlns="http://www.w3.org/2000/svg" width="21.376" height="14.799" viewBox="0 0 21.376 14.799">
  <g id="Group_847" data-name="Group 847">
    <path id="Path_2838" data-name="Path 2838" d="M187.523,185.7a3.071,3.071,0,1,0,2.923,3.067A3,3,0,0,0,187.523,185.7Z" transform="translate(-177.027 -181.368)" fill="#848484"/>
    <path id="Path_2839" data-name="Path 2839" d="M21.521,98.647a4.849,4.849,0,1,1,4.7-4.847A4.782,4.782,0,0,1,21.521,98.647Zm10.746-5.318C29.483,88.861,25.731,86.4,21.713,86.4s-7.77,2.461-10.554,6.928a.9.9,0,0,0,0,.942c2.784,4.468,6.536,6.928,10.554,6.928s7.766-2.461,10.554-6.928A.9.9,0,0,0,32.267,93.328Z" transform="translate(-11.025 -86.4)" fill="#848484"/>
  </g>
</svg>
