<svg id="gold-icon" xmlns="http://www.w3.org/2000/svg" width="27.675" height="24.867" viewBox="0 0 27.675 24.867">
  <path id="Path_3905" data-name="Path 3905" d="M32.351,44.346l1.907-6.711a.557.557,0,0,1,.536-.405h8.132a.56.56,0,0,1,.547.448l1.957,6.7a.557.557,0,0,1-.378.689.53.53,0,0,1-.155.023v0H32.875a.556.556,0,0,1-.556-.556.475.475,0,0,1,.032-.191Z" transform="translate(-25.041 -28.846)" fill="#fac900" fill-rule="evenodd"/>
  <path id="Path_3906" data-name="Path 3906" d="M81.253,2.41l-.11.092a4.206,4.206,0,0,1,.919,3.209A4.2,4.2,0,0,1,80.51,8.666l.092.11a4.491,4.491,0,0,1,6.166.635l.11-.092A4.2,4.2,0,0,1,85.96,6.11a4.2,4.2,0,0,1,1.552-2.955l-.095-.113a4.206,4.206,0,0,1-3.209.919A4.2,4.2,0,0,1,81.253,2.41Z" transform="translate(-62.379 -1.867)" fill="#fac900" fill-rule="evenodd"/>
  <path id="Path_3907" data-name="Path 3907" d="M38.228,0l-.061.05a2.3,2.3,0,0,1,.5,1.754,2.293,2.293,0,0,1-.849,1.615l.05.061a2.459,2.459,0,0,1,3.371.347l.061-.05a2.289,2.289,0,0,1-.5-1.754A2.293,2.293,0,0,1,41.648.408L41.6.345a2.3,2.3,0,0,1-1.754.5A2.3,2.3,0,0,1,38.228,0Z" transform="translate(-29.303)" fill="#fac900" fill-rule="evenodd"/>
  <path id="Path_3908" data-name="Path 3908" d="M.032,82.619l1.907-6.711a.559.559,0,0,1,.536-.408h8.132a.558.558,0,0,1,.547.448l1.957,6.7a.556.556,0,0,1-.378.689.529.529,0,0,1-.155.023v0H.558A.558.558,0,0,1,0,82.808a.585.585,0,0,1,.032-.189Z" transform="translate(0 -58.497)" fill="#fac900" fill-rule="evenodd"/>
  <path id="Path_3909" data-name="Path 3909" d="M64.6,82.619l1.905-6.711a.559.559,0,0,1,.536-.408h8.132a.56.56,0,0,1,.547.448l1.959,6.7a.556.556,0,0,1-.378.689.529.529,0,0,1-.155.023v0H65.125a.556.556,0,0,1-.556-.556.485.485,0,0,1,.032-.189Z" transform="translate(-50.028 -58.497)" fill="#fac900" fill-rule="evenodd"/>
  <path id="Path_3910" data-name="Path 3910" d="M32.3,44.409,34.208,37.7a.559.559,0,0,1,.536-.408h8.132a.56.56,0,0,1,.547.448l.032.106H35.6a.559.559,0,0,0-.536.408l-1.907,6.711h0a.518.518,0,0,0-.032.187v0H32.83a.556.556,0,0,1-.556-.556.4.4,0,0,1,.027-.189Z" transform="translate(-25.004 -28.892)" fill="#e6bd00" fill-rule="evenodd"/>
  <path id="Path_3911" data-name="Path 3911" d="M.032,82.626l1.907-6.711a.557.557,0,0,1,.536-.405h8.132a.56.56,0,0,1,.547.448l.032.1H3.326a.56.56,0,0,0-.536.405L.883,83.178h0a.518.518,0,0,0-.032.187v0h-.3a.558.558,0,0,1-.525-.743Z" transform="translate(0 -58.505)" fill="#e3b600" fill-rule="evenodd"/>
  <path id="Path_3912" data-name="Path 3912" d="M.032,82.626l1.907-6.711a.557.557,0,0,1,.536-.405h8.132a.56.56,0,0,1,.547.448l.032.1H3.326a.56.56,0,0,0-.536.405L.883,83.178h0a.518.518,0,0,0-.032.187v0h-.3a.558.558,0,0,1-.525-.743Z" transform="translate(0 -58.505)" fill="#e6bd00" fill-rule="evenodd"/>
  <path id="Path_3913" data-name="Path 3913" d="M64.6,82.626l1.907-6.711a.557.557,0,0,1,.536-.405h8.132a.558.558,0,0,1,.547.448l.032.1H67.891a.56.56,0,0,0-.536.405l-1.907,6.711h0a.518.518,0,0,0-.032.187v0h-.291a.556.556,0,0,1-.556-.556.467.467,0,0,1,.032-.187Z" transform="translate(-50.028 -58.505)" fill="#e6bd00" fill-rule="evenodd"/>
  <path id="Path_3914" data-name="Path 3914" d="M5.338,32.01l-.061.05a2.451,2.451,0,0,1-.347,3.369l.05.061a2.281,2.281,0,0,1,1.757-.5,2.3,2.3,0,0,1,1.615.847l.061-.05a2.451,2.451,0,0,1,.347-3.369l-.05-.061a2.3,2.3,0,0,1-1.754.5,2.3,2.3,0,0,1-1.617-.849Z" transform="translate(-3.82 -24.801)" fill="#fac900" fill-rule="evenodd"/>
</svg>
