<svg xmlns="http://www.w3.org/2000/svg" width="30.079" height="27.284" viewBox="0 0 30.079 27.284">
  <g id="join_scheme_form" data-name="join scheme form" transform="translate(-5994.856 -1799)">
    <path id="Fill_1" data-name="Fill 1" d="M10.888,0C4.223.55-.251.928-.251,4.638S-4.045,9.287,10.888,9.31s11.14-.928,11.14-4.638S18.978.759,10.888,0" transform="translate(5995.539 1816.973)" fill="#67a224" opacity="0.4" />
    <path id="Fill_3" data-name="Fill 3" d="M7.371,14.437a7.27,7.27,0,0,0,7.371-7.219A7.27,7.27,0,0,0,7.371,0,7.271,7.271,0,0,0,0,7.219a7.271,7.271,0,0,0,7.371,7.219" transform="translate(5999.056 1799)" fill="#67a224" />
    <g id="add-svgrepo-com_1_" data-name="add-svgrepo-com (1)" transform="translate(6012.304 1813.526)">
      <path id="Path_2938" data-name="Path 2938" d="M2,8.316a6.316,6.316,0,1,1,6.316,6.316A6.316,6.316,0,0,1,2,8.316ZM8.316,3.263a5.053,5.053,0,1,0,5.053,5.053A5.053,5.053,0,0,0,8.316,3.263Z" transform="translate(-2 -2)" fill="#33b89b" fill-rule="evenodd" />
      <path id="Path_2939" data-name="Path 2939" d="M10.421,6.632a.632.632,0,0,0-1.263,0V9.158H6.632a.632.632,0,0,0,0,1.263H9.158v2.526a.632.632,0,1,0,1.263,0V10.421h2.526a.632.632,0,1,0,0-1.263H10.421Z" transform="translate(-3.474 -3.474)" fill="#33b89b" fill-rule="evenodd" />
    </g>
  </g>
</svg>