<svg xmlns="http://www.w3.org/2000/svg" width="30.54" height="25.938" viewBox="0 0 30.54 25.938">
  <g id="myscheme" transform="translate(-9851.654 -13600)">
    <path id="Path_3900" data-name="Path 3900" d="M25.937,15.529c0-3.443-1.419-7.946-5.366-9.562V4.242L21.745,3.3a.447.447,0,0,0,.168-.349V.449A.447.447,0,0,0,21.465,0H20.123a.447.447,0,0,0-.316.131l-.578.578L18.651.133A.447.447,0,0,0,18.335,0H16.546a.447.447,0,0,0-.316.131l-.578.578L15.073.133A.447.447,0,0,0,14.757,0H13.416a.447.447,0,0,0-.447.447v2.5a.447.447,0,0,0,.168.349l1.174.939V5.967c-3.948,1.616-5.366,6.121-5.366,9.562a7.313,7.313,0,0,0,.371,2.377c-.192-.011-.386-.017-.579-.017H7.6a.447.447,0,0,0-.447-.447H3.578a.447.447,0,0,0-.447.447H0v.894H3.13v4.472H0v.894H3.13a.447.447,0,0,0,.447.447H7.155A.447.447,0,0,0,7.6,24.15v-.17l3.339,1.386a7.736,7.736,0,0,0,5.691.063l6.908-2.634a1.653,1.653,0,0,0,.624-2.655A6.2,6.2,0,0,0,25.937,15.529ZM6.708,23.7H4.025V18.337H6.708ZM13.863,2.739V.9h.709l.763.763a.447.447,0,0,0,.632,0L16.731.9H18.15l.763.763a.447.447,0,0,0,.632,0L20.309.9h.709V2.739l-1.051.841H14.913Zm5.813,1.735V5.815H15.2V4.474Zm3.957,17.09a.739.739,0,0,1-.414.4l-6.908,2.634a6.842,6.842,0,0,1-5.032-.054L7.6,23.011V18.784H8.736a9.6,9.6,0,0,1,4.272,1.008,3.166,3.166,0,0,0,1.411.333h3.469a.671.671,0,0,1,.148,1.324c-.059.005-.116.017-.175.017H12.521v.894h5.366l.027,0a2.755,2.755,0,0,0,1.032-.219l3.739-1.587a.71.71,0,0,1,.558,0,.738.738,0,0,1,.4.416A.767.767,0,0,1,23.634,21.564Zm-.267-1.9a1.592,1.592,0,0,0-1.031.071l-2.9,1.231a1.527,1.527,0,0,0,.017-.165,1.565,1.565,0,0,0-1.565-1.565H14.419a2.275,2.275,0,0,1-1.011-.239,10.489,10.489,0,0,0-3.082-.976,6.126,6.126,0,0,1-.488-2.487c0-3.22,1.315-7.446,5.009-8.819h5.187c3.693,1.373,5.008,5.6,5.008,8.819A5.3,5.3,0,0,1,23.367,19.659Z" transform="translate(9851.654 13599.998)" fill="#e49e2b"/>
    <path id="Path_3901" data-name="Path 3901" d="M5.445,20.273H4.551v.894h.894Z" transform="translate(9852.022 13601.639)" fill="#e49e2b"/>
    <path id="Path_3902" data-name="Path 3902" d="M16.5,7.448a4.919,4.919,0,1,0,4.919,4.919A4.919,4.919,0,0,0,16.5,7.448Zm0,8.944a4.025,4.025,0,1,1,4.025-4.025A4.025,4.025,0,0,1,16.5,16.392Z" transform="translate(9852.637 13600.601)" fill="#e49e2b"/>
    <path id="Path_4366" data-name="Path 4366" d="M0,0H9.348s.669,5.616-1.506,5.725C3.668,10.387,6.292,8.52,5.453,9.494A4.828,4.828,0,0,1,0,10.85Z" transform="translate(9871.327 13612.155)" fill="#fff"/>
    <path id="Path_3903" data-name="Path 3903" d="M3.843,7.853a.3.3,0,0,1,0-.585H5.185a.3.3,0,0,1,0,.585Zm4.6-1.213a2.731,2.731,0,1,1-1.932.8,2.722,2.722,0,0,1,1.932-.8ZM8.229,8.094a.244.244,0,0,1,.489,0V9.367l.952.563a.244.244,0,1,1-.248.42L8.362,9.722A.244.244,0,0,1,8.229,9.5V8.094Zm1.8-.308a2.245,2.245,0,1,0,.657,1.587,2.238,2.238,0,0,0-.657-1.587ZM4.344,10.83a.293.293,0,0,1,0,.585H.682A.683.683,0,0,1,0,10.734V.682A.683.683,0,0,1,.682,0H9.045a.683.683,0,0,1,.682.682V5.339a.293.293,0,1,1-.585,0V.682a.1.1,0,0,0-.1-.1H.682A.093.093,0,0,0,.615.615a.089.089,0,0,0-.03.067V10.734a.093.093,0,0,0,.029.067.1.1,0,0,0,.067.029ZM1.883,7.141h.734a.1.1,0,0,1,.1.1v.734a.1.1,0,0,1-.1.1H1.883a.1.1,0,0,1-.1-.1V7.237a.1.1,0,0,1,.1-.1Zm0-5.024h.734a.1.1,0,0,1,.1.1v.734a.1.1,0,0,1-.1.1H1.883a.1.1,0,0,1-.1-.1V2.213a.1.1,0,0,1,.1-.1Zm1.959.712A.272.272,0,0,1,3.6,2.536a.272.272,0,0,1,.245-.293H7.336a.272.272,0,0,1,.245.293.272.272,0,0,1-.245.293ZM2.184,5.53a.164.164,0,0,1-.218-.025l-.021-.018-.307-.317a.172.172,0,0,1,.033-.249.2.2,0,0,1,.267-.008l.167.172.539-.433a.172.172,0,0,1,.245.056.2.2,0,0,1-.017.266l-.69.556Zm1.5-.245a.3.3,0,0,1,0-.585H7.174a.3.3,0,0,1,0,.585Z" transform="translate(9871.024 13611.98)" fill="#a97929"/>
    <path id="Path_3904" data-name="Path 3904" d="M0,1.76l.306-.689H1.46A.442.442,0,0,0,1.383.927.542.542,0,0,0,1.249.8.743.743,0,0,0,1.07.721.658.658,0,0,0,.861.689H0L.306,0h3.3L3.3.689H2.5a.546.546,0,0,1,.088.085.68.68,0,0,1,.072.1.979.979,0,0,1,.052.1.436.436,0,0,1,.027.095h.864L3.3,1.76H2.677a1.142,1.142,0,0,1-.2.332,1.679,1.679,0,0,1-.316.282,2.031,2.031,0,0,1-.393.21,1.888,1.888,0,0,1-.429.115L3.069,4.486H1.7L.15,2.788V2.155H.835a.592.592,0,0,0,.194-.032.724.724,0,0,0,.177-.088.656.656,0,0,0,.141-.125.45.45,0,0,0,.085-.149Z" transform="translate(9867.185 13610.979)" fill="#e49e2b"/>
  </g>
</svg>
