<svg id="silver-icon" xmlns="http://www.w3.org/2000/svg" width="27.063" height="24.316" viewBox="0 0 27.063 24.316">
  <path id="Path_3915" data-name="Path 3915" d="M32.355,44.18l1.865-6.563a.545.545,0,0,1,.524-.4H42.7a.548.548,0,0,1,.535.438l1.914,6.554a.544.544,0,0,1-.37.674.518.518,0,0,1-.152.022v0H32.871a.544.544,0,0,1-.544-.544.43.43,0,0,1,.029-.187Z" transform="translate(-25.206 -29.023)" fill="#c8cbd1" fill-rule="evenodd"/>
  <path id="Path_3916" data-name="Path 3916" d="M81.227,2.41l-.108.09a4.113,4.113,0,0,1,.9,3.138A4.109,4.109,0,0,1,80.5,8.528l.09.108a4.392,4.392,0,0,1,6.03.621l.108-.09a4.1,4.1,0,0,1-.9-3.138,4.109,4.109,0,0,1,1.517-2.89l-.092-.11a4.113,4.113,0,0,1-3.138.9,4.105,4.105,0,0,1-2.89-1.517Z" transform="translate(-62.771 -1.879)" fill="#aeb0b5" fill-rule="evenodd"/>
  <path id="Path_3917" data-name="Path 3917" d="M38.219,0l-.059.048a2.247,2.247,0,0,1,.491,1.716,2.242,2.242,0,0,1-.83,1.579l.048.059a2.4,2.4,0,0,1,3.3.339l.059-.048a2.238,2.238,0,0,1-.491-1.716A2.242,2.242,0,0,1,41.564.4L41.516.337A2.247,2.247,0,0,1,39.8.828,2.245,2.245,0,0,1,38.219,0Z" transform="translate(-29.491)" fill="#aeb0b5" fill-rule="evenodd"/>
  <path id="Path_3918" data-name="Path 3918" d="M.038,82.452,1.9,75.889a.547.547,0,0,1,.524-.4H10.38a.546.546,0,0,1,.535.438l1.914,6.554a.543.543,0,0,1-.37.674.518.518,0,0,1-.152.022v0H.555a.546.546,0,0,1-.546-.544.517.517,0,0,1,.029-.185Z" transform="translate(-0.007 -58.864)" fill="#c8cbd1" fill-rule="evenodd"/>
  <path id="Path_3919" data-name="Path 3919" d="M64.6,82.452l1.863-6.563a.547.547,0,0,1,.524-.4h7.953a.548.548,0,0,1,.535.438l1.916,6.554a.543.543,0,0,1-.37.674.518.518,0,0,1-.152.022v0H65.111a.544.544,0,0,1-.544-.544.436.436,0,0,1,.029-.185Z" transform="translate(-50.346 -58.864)" fill="#c8cbd1" fill-rule="evenodd"/>
  <path id="Path_3920" data-name="Path 3920" d="M32.3,44.242l1.865-6.563a.547.547,0,0,1,.524-.4h7.953a.548.548,0,0,1,.535.438l.031.1H35.522a.547.547,0,0,0-.524.4l-1.865,6.563h0a.506.506,0,0,0-.031.183v0h-.284a.544.544,0,0,1-.544-.544.391.391,0,0,1,.026-.185Z" transform="translate(-25.164 -29.069)" fill="#aeb0b5" fill-rule="evenodd"/>
  <path id="Path_3921" data-name="Path 3921" d="M.031,82.46,1.9,75.9a.545.545,0,0,1,.524-.4h7.953a.548.548,0,0,1,.535.438l.031.1H3.253a.548.548,0,0,0-.524.4L.863,83h0a.506.506,0,0,0-.031.183v0H.544a.546.546,0,0,1-.513-.727Z" transform="translate(0 -58.872)" fill="#aeb0b5" fill-rule="evenodd"/>
  <path id="Path_3922" data-name="Path 3922" d="M64.59,82.46,66.455,75.9a.545.545,0,0,1,.524-.4h7.953a.546.546,0,0,1,.535.438l.031.1H67.808a.548.548,0,0,0-.524.4L65.418,83h0a.506.506,0,0,0-.031.183v0H65.1a.544.544,0,0,1-.544-.544.456.456,0,0,1,.031-.183Z" transform="translate(-50.34 -58.872)" fill="#aeb0b5" fill-rule="evenodd"/>
  <path id="Path_3923" data-name="Path 3923" d="M5.329,32.01l-.059.048a2.4,2.4,0,0,1-.339,3.295l.048.059A2.231,2.231,0,0,1,6.7,34.924a2.248,2.248,0,0,1,1.579.828l.059-.048a2.4,2.4,0,0,1,.339-3.295l-.048-.059a2.247,2.247,0,0,1-1.716.491,2.251,2.251,0,0,1-1.581-.83Z" transform="translate(-3.844 -24.96)" fill="#aeb0b5" fill-rule="evenodd"/>
  <path id="Path_3924" data-name="Path 3924" d="M4.93,36.765l.048.059A2.231,2.231,0,0,1,6.7,36.335a2.248,2.248,0,0,1,1.579.828l.059-.048a2.4,2.4,0,0,1,.339-3.295L4.93,36.765Z" transform="translate(-3.844 -26.371)" fill="#c8cbd1" fill-rule="evenodd"/>
  <path id="Path_3925" data-name="Path 3925" d="M37.82,4.536l.048.059a2.4,2.4,0,0,1,3.3.339l.059-.048a2.238,2.238,0,0,1-.491-1.716,2.242,2.242,0,0,1,.83-1.579l-.048-.062c-2.442,1.987-1.216.987-3.7,3.006Z" transform="translate(-29.491 -1.193)" fill="#c8cbd1" fill-rule="evenodd"/>
  <path id="Path_3926" data-name="Path 3926" d="M80.5,10.719l.09.108a4.392,4.392,0,0,1,6.03.621l.108-.09a4.1,4.1,0,0,1-.9-3.138,4.109,4.109,0,0,1,1.517-2.89l-.092-.11c-4.493,3.656-2.242,1.826-6.755,5.5Z" transform="translate(-62.771 -4.07)" fill="#c8cbd1" fill-rule="evenodd"/>
</svg>
