<svg xmlns="http://www.w3.org/2000/svg" width="20" height="20" viewBox="0 0 20 20">
  <g id="user" transform="translate(-73)">
    <g id="Group_852" data-name="Group 852" transform="translate(73)">
      <path id="Path_2844" data-name="Path 2844" d="M75.814,16.948a10.468,10.468,0,1,0-.128-.14A.59.59,0,0,0,75.814,16.948ZM83,18.849a8.811,8.811,0,0,1-5.715-2.1c2.593-.86,3.552-1.907,3.907-2.6a4.214,4.214,0,0,0,1.657.337h.134a4.234,4.234,0,0,0,1.779-.4c.331.7,1.273,1.779,3.942,2.663A8.768,8.768,0,0,1,83,18.849Zm-3.233-10.7V8.116c.14-3.029,2.372-3.267,3.058-3.267h.186c.68,0,2.919.238,3.058,3.267v.035c.006.029.291,2.831-1.017,4.3a2.688,2.688,0,0,1-2.11.878h-.035a2.7,2.7,0,0,1-2.11-.878C79.483,10.994,79.762,8.18,79.767,8.151Zm3.233-7a8.845,8.845,0,0,1,6.645,14.686c-3.756-1.093-3.9-2.419-3.9-2.436v.029H85.7c.07-.07.14-.14.209-.215,1.6-1.8,1.331-4.872,1.3-5.174-.157-3.209-2.36-4.349-4.2-4.349h-.186c-1.843,0-4.052,1.14-4.2,4.349-.029.3-.291,3.372,1.3,5.174.093.1.192.2.291.3-.122.337-.738,1.407-3.86,2.32A8.84,8.84,0,0,1,83,1.151Z" transform="translate(-73)" fill="#ffeabf"/>
    </g>
  </g>
</svg>
