<svg xmlns="http://www.w3.org/2000/svg" width="22.03" height="22.174" viewBox="0 0 22.03 22.174">
  <path id="whatsapp" d="M32.722,16.638A10.97,10.97,0,0,0,15.458,29.9L13.9,35.56l5.82-1.527a10.926,10.926,0,0,0,5.238,1.339h0a10.974,10.974,0,0,0,7.757-18.735ZM24.961,33.519a9.088,9.088,0,0,1-4.632-1.272l-.331-.2-3.452.9.921-3.364-.215-.347a9.116,9.116,0,1,1,7.709,4.277Zm5-6.812c-.275-.136-1.622-.8-1.873-.889s-.434-.14-.618.14-.71.889-.873,1.076-.319.207-.59.068a7.514,7.514,0,0,1-2.2-1.363,8.371,8.371,0,0,1-1.527-1.9c-.159-.271,0-.423.12-.558s.275-.319.4-.478a1.866,1.866,0,0,0,.287-.482.5.5,0,0,0-.024-.482c-.068-.136-.618-1.487-.841-2.037s-.45-.462-.618-.47-.343,0-.522,0a1.016,1.016,0,0,0-.733.339,3.085,3.085,0,0,0-.961,2.288A5.364,5.364,0,0,0,20.5,24.8a12.172,12.172,0,0,0,4.684,4.142c.654.279,1.164.446,1.563.578a3.755,3.755,0,0,0,1.726.108,2.814,2.814,0,0,0,1.85-1.3,2.22,2.22,0,0,0,.159-1.3c-.064-.124-.243-.191-.522-.331Z" transform="translate(-13.899 -13.386)" fill="#fff"/>
</svg>
